<svg width="15" height="17" viewBox="0 0 15 17" fill="none" xmlns="http://www.w3.org/2000/svg">
<g clip-path="url(#clip0)">
<path d="M14.375 13.0625H13.125V11.6875C13.125 11.5052 13.0592 11.3303 12.9419 11.2014C12.8247 11.0724 12.6658 11 12.5 11C12.3342 11 12.1753 11.0724 12.0581 11.2014C11.9408 11.3303 11.875 11.5052 11.875 11.6875V13.0625H10.625C10.4592 13.0625 10.3003 13.1349 10.1831 13.2639C10.0658 13.3928 10 13.5677 10 13.75C10 13.9323 10.0658 14.1072 10.1831 14.2361C10.3003 14.3651 10.4592 14.4375 10.625 14.4375H11.875V15.8125C11.875 15.9948 11.9408 16.1697 12.0581 16.2986C12.1753 16.4276 12.3342 16.5 12.5 16.5C12.6658 16.5 12.8247 16.4276 12.9419 16.2986C13.0592 16.1697 13.125 15.9948 13.125 15.8125V14.4375H14.375C14.5408 14.4375 14.6997 14.3651 14.8169 14.2361C14.9342 14.1072 15 13.9323 15 13.75C15 13.5677 14.9342 13.3928 14.8169 13.2639C14.6997 13.1349 14.5408 13.0625 14.375 13.0625Z" fill="white"/>
<path d="M13.125 4.125H11.25C11.25 3.03098 10.8549 1.98177 10.1517 1.20818C9.44839 0.434597 8.49456 0 7.5 0C6.50544 0 5.55161 0.434597 4.84835 1.20818C4.14509 1.98177 3.75 3.03098 3.75 4.125H1.875C1.37772 4.125 0.900805 4.3423 0.549175 4.72909C0.197544 5.11589 0 5.64049 0 6.1875L0 13.0625C0.000992411 13.9738 0.330551 14.8476 0.916387 15.492C1.50222 16.1364 2.2965 16.4989 3.125 16.5H8.75C8.91576 16.5 9.07473 16.4276 9.19194 16.2986C9.30915 16.1697 9.375 15.9948 9.375 15.8125C9.375 15.6302 9.30915 15.4553 9.19194 15.3264C9.07473 15.1974 8.91576 15.125 8.75 15.125H3.125C2.62772 15.125 2.15081 14.9077 1.79917 14.5209C1.44754 14.1341 1.25 13.6095 1.25 13.0625V6.1875C1.25 6.00516 1.31585 5.8303 1.43306 5.70136C1.55027 5.57243 1.70924 5.5 1.875 5.5H3.75V6.875C3.75 7.05734 3.81585 7.2322 3.93306 7.36114C4.05027 7.49007 4.20924 7.5625 4.375 7.5625C4.54076 7.5625 4.69973 7.49007 4.81694 7.36114C4.93415 7.2322 5 7.05734 5 6.875V5.5H10V6.875C10 7.05734 10.0658 7.2322 10.1831 7.36114C10.3003 7.49007 10.4592 7.5625 10.625 7.5625C10.7908 7.5625 10.9497 7.49007 11.0669 7.36114C11.1842 7.2322 11.25 7.05734 11.25 6.875V5.5H13.125C13.2908 5.5 13.4497 5.57243 13.5669 5.70136C13.6842 5.8303 13.75 6.00516 13.75 6.1875V9.625C13.75 9.80734 13.8158 9.9822 13.9331 10.1111C14.0503 10.2401 14.2092 10.3125 14.375 10.3125C14.5408 10.3125 14.6997 10.2401 14.8169 10.1111C14.9342 9.9822 15 9.80734 15 9.625V6.1875C15 5.64049 14.8025 5.11589 14.4508 4.72909C14.0992 4.3423 13.6223 4.125 13.125 4.125ZM5 4.125C5 3.39565 5.26339 2.69618 5.73223 2.18046C6.20107 1.66473 6.83696 1.375 7.5 1.375C8.16304 1.375 8.79893 1.66473 9.26777 2.18046C9.73661 2.69618 10 3.39565 10 4.125H5Z" fill="white"/>
</g>
<defs>
<clipPath id="clip0">
<rect width="15" height="16.5" fill="white"/>
</clipPath>
</defs>
</svg>
